# xmcd
#
# Track frame offsets: 
#        150
#        9951
#        20856
#        30587
#        40524
#        52495
#        64937
#        76150
#        87294
#        97204
#        109866
#        122014
#        132022
#        144609
#        157740
#        173934
#        186883
#        200912
#        213831
#        223724
#
# Disc length: 3184 seconds
#
# Revision: 0
# Processed by: cddbd v1.5.2PL0 Copyright (c) Steve Scherf et al.
# Submitted via: ExactAudioCopy v1.0b3
#
DISCID=1e0c6e14
DTITLE=John Lee Hooker - Anthology [CD2]
DYEAR=2016
DGENRE=Blues
TTITLE0=Dimples
TTITLE1=No Shoes
TTITLE2=I Wanna Walk
TTITLE3=Run On
TTITLE4=I'm a Stranger
TTITLE5=Whiskey and Wimmen
TTITLE6=Solid Sender
TTITLE7=Sunny Land
TTITLE8=Goin' to California
TTITLE9=I Can't Believe
TTITLE10=I'll Know Tonight
TTITLE11=Dusty Road
TTITLE12=Canal Street Blues
TTITLE13=Union Station Blues
TTITLE14=Good Mornin' Lil School Girl
TTITLE15=I Love You Baby
TTITLE16=Come See About Me
TTITLE17=Lost a Good Girl
TTITLE18=Keep Your Hands to Yourself
TTITLE19=Tupelo Blues
EXTD=
EXTT0=
EXTT1=
EXTT2=
EXTT3=
EXTT4=
EXTT5=
EXTT6=
EXTT7=
EXTT8=
EXTT9=
EXTT10=
EXTT11=
EXTT12=
EXTT13=
EXTT14=
EXTT15=
EXTT16=
EXTT17=
EXTT18=
EXTT19=
PLAYORDER=
